<svg width="12" height="12" viewBox="0 0 12 12" fill="none" xmlns="http://www.w3.org/2000/svg">
<g clip-path="url(#clip0_145_4)">
<path d="M4.5 8C4.5 8.13261 4.44732 8.25979 4.35355 8.35355C4.25979 8.44732 4.13261 8.5 4 8.5C3.86739 8.5 3.74021 8.44732 3.64645 8.35355C3.55268 8.25979 3.5 8.13261 3.5 8C3.5 7.86739 3.55268 7.74021 3.64645 7.64645C3.74021 7.55268 3.86739 7.5 4 7.5C4.13261 7.5 4.25979 7.55268 4.35355 7.64645C4.44732 7.74021 4.5 7.86739 4.5 8ZM6.5 8C6.5 8.13261 6.44732 8.25979 6.35355 8.35355C6.25979 8.44732 6.13261 8.5 6 8.5C5.86739 8.5 5.74021 8.44732 5.64645 8.35355C5.55268 8.25979 5.5 8.13261 5.5 8C5.5 7.86739 5.55268 7.74021 5.64645 7.64645C5.74021 7.55268 5.86739 7.5 6 7.5C6.13261 7.5 6.25979 7.55268 6.35355 7.64645C6.44732 7.74021 6.5 7.86739 6.5 8ZM8 8.5C8.13261 8.5 8.25979 8.44732 8.35355 8.35355C8.44732 8.25979 8.5 8.13261 8.5 8C8.5 7.86739 8.44732 7.74021 8.35355 7.64645C8.25979 7.55268 8.13261 7.5 8 7.5C7.86739 7.5 7.74021 7.55268 7.64645 7.64645C7.55268 7.74021 7.5 7.86739 7.5 8C7.5 8.13261 7.55268 8.25979 7.64645 8.35355C7.74021 8.44732 7.86739 8.5 8 8.5Z" fill="#AACB71"/>
<path fill-rule="evenodd" clip-rule="evenodd" d="M2.625 4V4.6515C2.51167 4.65917 2.40467 4.66983 2.304 4.6835C1.854 4.7435 1.475 4.8735 1.174 5.174C0.873 5.475 0.744 5.854 0.6835 6.304C0.625 6.7375 0.625 7.289 0.625 7.9725V8.0275C0.625 8.711 0.625 9.2625 0.6835 9.696C0.7435 10.146 0.8735 10.525 1.174 10.826C1.475 11.127 1.854 11.256 2.304 11.317C2.7375 11.375 3.289 11.375 3.9725 11.375H8.0275C8.711 11.375 9.2625 11.375 9.696 11.317C10.146 11.256 10.525 11.127 10.826 10.826C11.127 10.525 11.256 10.146 11.317 9.696C11.375 9.2625 11.375 8.711 11.375 8.0275V7.9725C11.375 7.289 11.375 6.7375 11.317 6.304C11.256 5.854 11.127 5.475 10.826 5.174C10.525 4.873 10.146 4.744 9.696 4.6835C9.58937 4.66938 9.48232 4.65871 9.375 4.6515V4C9.375 3.10489 9.01942 2.24645 8.38649 1.61351C7.75355 0.980579 6.89511 0.625 6 0.625C5.10489 0.625 4.24645 0.980579 3.61351 1.61351C2.98058 2.24645 2.625 3.10489 2.625 4ZM6 1.375C5.30381 1.375 4.63613 1.65156 4.14384 2.14384C3.65156 2.63613 3.375 3.30381 3.375 4V4.6265C3.56167 4.62517 3.76083 4.62467 3.9725 4.625H8.0275C8.23917 4.625 8.43833 4.6255 8.625 4.6265V4C8.625 2.55 7.45 1.375 6 1.375ZM2.404 5.4265C2.037 5.476 1.843 5.5665 1.7045 5.7045C1.566 5.843 1.476 6.037 1.4265 6.4045C1.376 6.782 1.375 7.2825 1.375 8C1.375 8.7175 1.376 9.218 1.4265 9.596C1.476 9.963 1.5665 10.157 1.7045 10.2955C1.843 10.434 2.037 10.524 2.4045 10.5735C2.7815 10.624 3.2825 10.625 4 10.625H8C8.7175 10.625 9.218 10.624 9.596 10.5735C9.963 10.524 10.157 10.4335 10.2955 10.2955C10.434 10.157 10.524 9.963 10.5735 9.5955C10.624 9.218 10.625 8.7175 10.625 8C10.625 7.2825 10.624 6.7815 10.5735 6.404C10.524 6.037 10.4335 5.843 10.2955 5.7045C10.157 5.566 9.963 5.476 9.5955 5.4265C9.218 5.376 8.7175 5.375 8 5.375H4C3.2825 5.375 2.7815 5.376 2.404 5.4265Z" fill="#AACB71"/>
</g>
<defs>
<clipPath id="clip0_145_4">
<rect width="12" height="12" fill="white"/>
</clipPath>
</defs>
</svg>
